<svg xmlns="http://www.w3.org/2000/svg" width="128" height="128" viewBox="0 0 128 128">
  <title>SUCCESS</title>
  <g>
    <path d="M100.531,64.33c0,3.584-6.421,6.109-7.471,9.343-1.089,3.352,2.584,9.162.553,11.951-2.05,2.818-8.724,1.11-11.542,3.161-2.79,2.03-3.216,8.915-6.567,10-3.234,1.05-7.612-4.236-11.2-4.236s-7.962,5.286-11.2,4.236c-3.352-1.089-3.778-7.974-6.568-10-2.817-2.05-9.491-.342-11.542-3.16-2.03-2.79,1.642-8.6.554-11.951-1.05-3.234-7.471-5.759-7.471-9.343s6.421-6.109,7.471-9.343c1.088-3.351-2.584-9.161-.554-11.951,2.051-2.818,8.725-1.11,11.543-3.16,2.789-2.03,3.215-8.916,6.567-10,3.234-1.05,7.612,4.236,11.2,4.236s7.962-5.286,11.2-4.236c3.351,1.088,3.778,7.974,6.567,10,2.818,2.051,9.492.343,11.543,3.16,2.03,2.79-1.643,8.6-.554,11.951C94.11,58.221,100.531,60.746,100.531,64.33Z" fill="#2086a5"/>
    <path d="M61.14,76.647a3.987,3.987,0,0,1-2.828-1.171l-8.918-8.918A4,4,0,1,1,55.05,60.9l6.09,6.089L73.565,54.565a4,4,0,1,1,5.658,5.657L63.969,75.476A3.988,3.988,0,0,1,61.14,76.647Z" fill="#f7d6bf"/>
  </g>
  <g>
    <path d="M35.225,80.37a1.75,1.75,0,0,0,1.7-1.345c.084-.355.166-.709.239-1.057a1.75,1.75,0,1,0-3.426-.717c-.067.319-.141.642-.218.965a1.748,1.748,0,0,0,1.3,2.106A1.718,1.718,0,0,0,35.225,80.37Z" fill="#172956"/>
    <path d="M97.767,57.723c-1.341-1.133-2.727-2.3-3.043-3.276-.343-1.057.1-2.882.525-4.645.669-2.765,1.361-5.623-.22-7.8-1.6-2.193-4.68-2.426-7.4-2.631-1.8-.136-3.651-.276-4.528-.914-.855-.623-1.553-2.328-2.226-3.978-1.04-2.544-2.218-5.427-4.83-6.275-2.518-.818-5,.708-7.394,2.186-1.568.964-3.19,1.963-4.343,1.963s-2.775-1-4.344-1.963c-2.4-1.478-4.876-3-7.393-2.186-2.613.848-3.79,3.73-4.829,6.274-.675,1.65-1.371,3.356-2.227,3.979-.877.638-2.733.778-4.528.914-2.72.2-5.8.438-7.4,2.632-1.581,2.172-.889,5.03-.22,7.8.426,1.763.868,3.588.525,4.645-.316.972-1.7,2.144-3.042,3.276-2.117,1.788-4.515,3.814-4.515,6.607s2.4,4.819,4.514,6.608a18.727,18.727,0,0,1,2.525,2.388,1.75,1.75,0,0,0,2.75-2.164,21.387,21.387,0,0,0-3.016-2.9c-1.534-1.3-3.273-2.766-3.273-3.934s1.739-2.638,3.273-3.934c1.715-1.449,3.489-2.947,4.113-4.869.649-2,.089-4.311-.452-6.548-.459-1.9-.98-4.049-.352-4.913.644-.884,2.87-1.052,4.833-1.2,2.283-.173,4.644-.35,6.324-1.574,1.66-1.208,2.549-3.382,3.407-5.484.752-1.839,1.6-3.924,2.672-4.271.972-.312,2.836.827,4.477,1.838,1.983,1.221,4.034,2.483,6.178,2.483S68.5,34.6,70.486,33.374c1.64-1.011,3.493-2.152,4.478-1.838,1.067.347,1.919,2.432,2.671,4.271.859,2.1,1.747,4.276,3.407,5.484,1.68,1.224,4.041,1.4,6.324,1.574,1.963.149,4.189.317,4.833,1.2.628.865.108,3.015-.352,4.914-.541,2.237-1.1,4.55-.452,6.548.624,1.922,2.4,3.42,4.113,4.869,1.534,1.3,3.273,2.765,3.273,3.934s-1.739,2.638-3.274,3.935c-1.715,1.449-3.488,2.947-4.112,4.868-.649,2-.089,4.312.452,6.55.459,1.9.98,4.048.351,4.912-.644.884-2.87,1.052-4.834,1.2-2.282.173-4.642.35-6.322,1.573-1.661,1.208-2.549,3.383-3.408,5.485-.751,1.839-1.6,3.923-2.671,4.271-.975.312-2.836-.828-4.476-1.838C68.5,94.065,66.452,92.8,64.308,92.8s-4.2,1.262-6.179,2.484c-1.64,1.01-3.5,2.149-4.477,1.838-1.068-.348-1.919-2.432-2.671-4.271-.858-2.1-1.747-4.277-3.407-5.485-1.68-1.223-4.041-1.4-6.324-1.574-1.963-.149-4.189-.316-4.834-1.2a1.438,1.438,0,0,1-.23-.574,1.75,1.75,0,0,0-3.434.679,4.9,4.9,0,0,0,.835,1.955c1.6,2.194,4.68,2.427,7.4,2.632,1.8.136,3.652.277,4.529.914.855.623,1.552,2.328,2.226,3.979,1.04,2.544,2.217,5.426,4.83,6.275a4.68,4.68,0,0,0,1.455.229c2.016,0,4-1.224,5.938-2.414,1.569-.966,3.191-1.965,4.344-1.965s2.775,1,4.344,1.965c2.4,1.475,4.878,3,7.392,2.185,2.613-.849,3.791-3.731,4.83-6.275.674-1.65,1.371-3.356,2.227-3.979.876-.637,2.732-.777,4.526-.913,2.721-.2,5.805-.438,7.4-2.632,1.581-2.173.889-5.03.221-7.8-.427-1.764-.868-3.588-.525-4.645.316-.972,1.7-2.144,3.042-3.276,2.116-1.788,4.515-3.814,4.515-6.608S99.882,59.511,97.767,57.723Z" fill="#172956"/>
    <path d="M72.812,64.158a1.75,1.75,0,0,0,2.474,2.475l5.174-5.174a5.75,5.75,0,1,0-8.132-8.131L61.14,64.516l-4.852-4.852A5.75,5.75,0,1,0,48.156,67.8l8.918,8.918a5.751,5.751,0,0,0,8.132,0l5.434-5.434a1.749,1.749,0,0,0-2.474-2.474l-5.435,5.433a2.3,2.3,0,0,1-3.182,0L50.63,65.319a2.25,2.25,0,0,1,0-3.18,2.3,2.3,0,0,1,3.182,0L59.9,68.228a1.75,1.75,0,0,0,2.474,0L74.8,55.8a2.25,2.25,0,1,1,3.182,3.181Z" fill="#172956"/>
  </g>
</svg>
